<svg xmlns="http://www.w3.org/2000/svg" width="202" height="225" xmlns:v="https://vecta.io/nano"><defs><filter x="-50%" y="-50%" width="200%" height="200%" id="A"><feOffset dy="2" in="SourceAlpha"/><feGaussianBlur stdDeviation="5"/><feColorMatrix values="0 0 0 0 0 0 0 0 0 0 0 0 0 0 0 0 0 0 0.32 0" result="C"/><feMerge><feMergeNode in="C"/><feMergeNode in="SourceGraphic"/></feMerge></filter></defs><g filter="url(#A)" transform="translate(10 10)" fill="#fefefe" fill-rule="evenodd"><path d="M4.962 197.908v4.875c0 .254.055.447.164.58a.55.55 0 0 0 .447.198H7.32c.856 0 1.528-.233 2.017-.697s.733-1.148.733-2.048c0-.942-.26-1.662-.783-2.16s-1.28-.748-2.277-.748H4.962zm0-.842h1.52c1.044 0 1.79-.216 2.24-.65s.674-1.15.674-2.152c0-.868-.215-1.486-.647-1.854s-1.25-.552-2.458-.552c-.577 0-.942.052-1.098.154s-.232.3-.232.56v4.495zm-4.825-6.06h8.167c1.27 0 2.267.3 2.995.9s1.093 1.348 1.093 2.242c0 .783-.3 1.448-.87 1.99s-1.45.965-2.61 1.267c1.535.254 2.627.674 3.273 1.26s.97 1.32.97 2.204c0 .78-.23 1.45-.692 2.012-.328.4-.9.753-1.716 1.06s-1.78.462-2.9.462H.136v-.843h1.238c.213 0 .374-.063.483-.2.146-.175.22-.383.22-.625v-10.374c0-.157-.068-.284-.205-.38s-.366-.145-.688-.145H.136v-.843z"/><path d="M26.266 194.062l-2.158 5.106h4.295l-2.136-5.106zm1.463-3.392l5.05 12.022c.145.34.303.568.473.69s.395.18.674.18h.492v.843H28.1v-.843h.59c.468 0 .79-.052.965-.154s.264-.238.264-.407c0-.133-.036-.288-.11-.462l-1.038-2.483h-5.04l-.48 1.133c-.2.472-.3.82-.3 1.052 0 .392.145.7.437.955s.7.366 1.195.366h.43v.843h-5.117v-.843h.292a1.33 1.33 0 0 0 .868-.307c.353-.3.627-.662.822-1.115l4.828-11.47h1.022z"/><path d="M46.45 197.084h1.138c1.007 0 1.803-.257 2.385-.77.437-.392.656-1.053.656-1.984 0-.857-.215-1.483-.647-1.88s-1.178-.594-2.24-.594c-.57 0-.93.062-1.074.186s-.218.4-.218.828v4.214zm-4.77-6.08h7.028c1.142 0 2.072.146 2.79.44s1.255.69 1.607 1.196.528 1.063.528 1.68c0 .983-.443 1.78-1.33 2.4-.674.465-1.712.767-3.114.906.703.115 1.244.298 1.623.55s.714.626 1.005 1.122c.383.652.697 1.434.94 2.347.152.586.286.955.4 1.106s.246.227.392.227c.4 0 .64-.528.72-1.586h.8c-.06 1.124-.313 1.93-.756 2.415s-1.068.73-1.876.73c-.577 0-1.04-.118-1.388-.354s-.615-.58-.797-1.033c-.11-.26-.26-.87-.456-1.83-.225-1.123-.426-1.878-.605-2.265s-.41-.673-.697-.86-.637-.28-1.056-.28h-.992v4.937c0 .217.064.383.19.498.182.15.395.226.637.226h1.22v.843h-6.82v-.843h1.056c.273 0 .48-.07.62-.213s.2-.34.2-.593v-10.103c0-.278-.064-.48-.19-.61s-.31-.195-.546-.195H41.68v-.843z"/><path d="M73.585 192.02l.628-1.332h.674l.228 5.373h-.838c-.26-1.546-.752-2.694-1.475-3.443s-1.548-1.124-2.477-1.124c-1.02 0-1.863.483-2.53 1.45s-1 2.5-1 4.572c0 2.204.367 3.84 1.102 4.908.588.84 1.456 1.258 2.604 1.258a3.8 3.8 0 0 0 2.895-1.259c.564-.6.96-1.5 1.183-2.7h.82c-.194 1.53-.78 2.737-1.757 3.624s-2.18 1.332-3.606 1.332c-1.845 0-3.39-.648-4.638-1.943s-1.87-2.953-1.87-4.975c0-2.245.72-4.038 2.158-5.38 1.226-1.14 2.662-1.71 4.307-1.71.65 0 1.252.1 1.807.303s1.152.552 1.79 1.047"/><path d="M83.495 191.004h11.726l.265 4.684h-.8c-.188-1.104-.425-1.9-.706-2.386s-.652-.85-1.1-1.092-1.058-.362-1.8-.362h-1.84c-.285 0-.492.056-.62.168s-.19.267-.19.466v4.648h.628c.722 0 1.28-.205 1.68-.616s.634-1.072.706-1.984h.82v6.234h-.82c-.053-1.033-.28-1.76-.682-2.183s-1.005-.635-1.812-.635h-.52v4.957c0 .218.063.37.19.463.195.13.474.198.838.198h1.62c1.11 0 2.02-.354 2.722-1.06s1.142-1.773 1.31-3.198h.82l-.2 5.1H83.495v-.843h1.21c.273 0 .48-.07.624-.208s.214-.326.214-.562v-10.31c0-.217-.07-.378-.214-.48s-.4-.154-.77-.154h-1.065v-.843z"/><path d="M104.058 191.847v-.843h6.9v.843h-1.165c-.335 0-.568.063-.702.2s-.2.333-.2.616v9.967c0 .405.063.663.19.775s.43.167.902.167h1.94c.722 0 1.395-.34 2.02-1.023s1.104-1.772 1.438-3.27h.82l-.31 5.136h-11.845v-.843h1.183c.26 0 .458-.067.592-.198s.2-.32.2-.563v-10.247c0-.248-.068-.427-.205-.54s-.37-.168-.705-.168h-1.065z"/><path d="M130.792 191.54c-.722 0-1.35.198-1.88.594s-.952 1.033-1.265 1.914-.47 2.09-.47 3.622c0 1.61.145 2.832.433 3.662s.708 1.444 1.26 1.842 1.195.597 1.93.597c1.087 0 1.954-.463 2.604-1.4s.975-2.536.975-4.83c0-1.605-.14-2.81-.42-3.616s-.695-1.406-1.247-1.802-1.193-.594-1.92-.594m-.055-.87c1.268 0 2.44.304 3.5.914a6.54 6.54 0 0 1 2.504 2.494c.598 1.054.898 2.24.898 3.563 0 2.01-.66 3.685-1.98 5.026s-2.957 2-4.912 2c-1.3 0-2.463-.305-3.492-.915a6.7 6.7 0 0 1-2.435-2.467c-.596-1.035-.893-2.238-.893-3.608 0-2.033.653-3.712 1.958-5.034s2.92-1.983 4.843-1.983"/><path d="M145.535 191.004h4.18l7.292 9.187v-6.24c0-.617-.175-1.1-.527-1.48s-.853-.578-1.503-.62v-.843h4.917v.843c-.686.073-1.178.276-1.475.61s-.446.833-.446 1.49v10.455h-1.053l-8.298-10.572v7.322c0 .84.192 1.45.578 1.832s.864.575 1.434.575h.228v.843h-5.436v-.843h.374c.534 0 .983-.2 1.347-.633s.546-.965.546-1.63v-8.65c-.406-.535-.925-.803-1.557-.803h-.6v-.843z"/><g transform="translate(166.099 190.662)"><path d="M6.695 3.4L4.537 8.506H8.83L6.695 3.4zM8.16.007l5.05 12.022c.145.34.303.568.473.69s.395.18.674.18h.492v.843H8.53V12.9h.59c.468 0 .8-.052.967-.154s.263-.238.263-.407c0-.133-.036-.288-.11-.462l-1.04-2.483h-5.04l-.478 1.133c-.2.472-.302.82-.302 1.052 0 .392.146.7.438.955s.7.366 1.194.366h.43v.843H.326V12.9H.62a1.33 1.33 0 0 0 .868-.307c.353-.3.627-.662.82-1.115L7.137.007H8.16z"/></g><path d="M90.17 176.485l-.777.004c-18.297-.9-35.37-7.915-49.45-18.683 13.808 9.575 30.897 14.582 50.143 14.582 21.168 0 42.602-9.376 58.806-25.722 15.854-15.994 24.947-36.607 24.947-56.554 0-18.328-3.973-34-11.607-46.77 9.74 14.08 15.67 30.395 15.67 46.77 0 48.68-39.073 88.145-87.732 86.373M89.104 1.62c18.6.003 36.95 7.49 52.1 19.396C127.507 11.574 110.077 6.2 90.087 6.2c-21.2 0-42.56 9.478-58.573 26.006-15.698 16.2-24.7 37.307-24.7 57.905 0 18.124 4.604 34.313 13.427 47.603-10.494-14.27-16.955-31.092-17.53-48.03C1.035 40.506 39.508 1.62 89.104 1.62M8.434 90.112c0-43.072 38.92-82.298 81.653-82.298 50.66 0 82.132 31.535 82.132 82.298 0 42.216-39.147 80.662-82.132 80.662-49.41 0-81.653-32.094-81.653-80.662M154.056 26.9C136.936 9.554 114.212 0 90.07 0 39.563 0 0 39.61 0 90.173c0 23.898 9.596 46.414 27.022 63.398 16.82 16.395 39.52 25.798 62.28 25.798l.793-.003c24.993-.233 48.035-9.886 64.88-27.18 16.318-16.75 25.305-38.796 25.305-62.075 0-23.625-9.313-46.075-26.225-63.21"/><path d="M81.32 50.412h-4.653c.75-4.268 4.54-7.324 1.362-11.23-4.918-6.047-15.71-8.417-25.878-4.84-3.822 1.345-6.436 4.796-7.588 8.907-2.3 8.208 3.88 14.748 7.782 18.588.525.516 20.055 16.89 20.236 17.04 4.204 3.455 7.45 5.6 10.612 10.064 1.824 2.583 4.033 5.908 4.617 9.5 1.168 7.176-2.285 15.828-5.147 19.502-4.383 5.628-12.406 10.735-20.106 13.003-12.228 3.6-28.766 3.34-35.55-4.384-1.72-1.957-3.653-3.57-4.626-8.377l8.674-17.076 5.625.252s-1.812 2.747-2.483 4.034c-3.445 6.605.608 12.05 3.945 15.5 2.724 2.816 6.25 4.697 10.507 6.002 3.348 1.028 7.546.512 10.478.028 8.867-1.462 14.643-5.345 17.54-12.226 3.77-8.96-4.097-16.217-8.572-20.448-5.547-5.244-16.53-13.795-19.356-16.287-5.803-5.117-12.82-10.286-14.542-18.707-1.296-6.336.456-14.068 4.334-18.9 4.416-5.514 9.35-9.358 16.538-11.812 4.6-1.57 15.488-2.278 21.597-.968 4.59.985 8.884 2.813 12.453 5.035-1.207 3.178-7.8 17.813-7.8 17.813"/><path d="M105.853 32.598v55.57h.195c.622-.796 11.45-10.56 12.426-10.55l7.082.087c5.624 0 11.333 2.456 14.597 6.478 2.275 2.804 2.883 8.15 2.864 12.686l.374 24.053s-.253 7.093 2.482 7.093l6.08.04.013 3.485-10.958-.282c-4.33 0-7.915.282-7.915.282l-.134-29.024c0-9.63-1.122-12.504-4.314-15.025-1.912-1.51-5.928-3.025-10.144-2.42-6.07.873-12.2 5.394-12.26 11.9l.176 23.85s-.42 7.2 2.872 7.253l6.03.008.07 3.46s-9.544-.545-13.395-.433l-15.014.433v-3.46l9.145-.026V50.38s-7.423-.001-8.95.033c.226-1.142.705-1.98 1.167-2.904 5.464-.178 9.737-6.27 11.48-10.262l1.556-4.647h4.475z"/></g></svg>